<svg width="47" height="64" viewBox="0 0 47 64" fill="none" xmlns="http://www.w3.org/2000/svg">
<rect x="0.48" y="0.48" width="45.2172" height="63.04" rx="4.85333" fill="#00923F"/>
<rect x="0.48" y="0.48" width="45.2172" height="63.04" rx="4.85333" stroke="#00923F" stroke-width="0.96"/>
<path d="M44.9307 3.89795C45.1076 3.99688 45.168 4.73733 45.2359 4.9417C44.5581 5.40165 43.6834 6.07224 43.0129 6.56631C41.8018 7.45658 40.5819 8.3348 39.3534 9.20083C35.7421 11.7483 32.044 14.1704 28.2657 16.4629C22.3507 20.0273 16.2574 23.2872 10.0097 26.2299C8.37921 27.0056 6.73898 27.7607 5.0894 28.4949C3.89157 29.0233 2.48472 29.6023 1.32086 30.166C1.19591 30.2393 0.987274 30.354 0.987274 30.354C0.987274 30.354 0.98923 29.4913 0.987274 29.2385C1.39258 29.1223 2.29866 28.7038 2.70533 28.5255C3.89947 27.9999 5.08926 27.4644 6.27458 26.9192C17.5804 21.8558 28.3803 15.731 38.5291 8.62715C39.8839 7.67924 41.2258 6.71282 42.5542 5.72823C43.1923 5.25956 44.3658 4.40753 44.9307 3.89795Z" fill="white"/>
<path d="M45.1885 9.146C45.1885 9.146 45.1853 9.9776 45.1885 10.2939C41.5807 12.6045 38.386 14.7344 34.6294 16.9111C23.9629 23.0298 12.6379 28.1382 0.991136 32.0835C0.991136 32.0835 0.990822 31.2711 0.990858 31.0826C2.70419 30.4055 4.73425 29.7354 6.49649 29.0753C9.81588 27.8291 13.1036 26.5004 16.3567 25.0902C23.3144 22.0703 30.0632 18.59 36.558 14.6723C39.5609 12.8593 42.2806 11.0366 45.1885 9.146Z" fill="white"/>
<path d="M41.6585 1.02567C41.8006 1.01487 42.5463 1.21117 42.745 1.39667C36.2429 6.72749 29.2776 11.7756 22.2015 16.317C15.286 20.7436 8.85032 24.2777 1.65021 28.0936L0.997697 28.4169C0.994587 28.0583 0.99781 27.6996 1.00736 27.3412C11.0096 22.2746 20.6352 16.4967 29.8101 10.0517C32.4042 8.21097 34.959 6.31552 37.4729 4.36671C38.8211 3.31859 40.3017 2.03244 41.6585 1.02567Z" fill="white"/>
<path d="M45.1962 14.1167C45.1962 14.1167 45.1889 14.999 45.1961 15.2026C44.1575 15.7395 42.698 16.6687 41.616 17.2822C39.1454 18.694 36.6379 20.0403 34.0962 21.3198C23.5415 26.5443 12.3827 30.7157 0.992287 33.7084C0.992287 33.7084 0.990475 32.9418 0.992372 32.7014C1.5902 32.6177 2.52062 32.309 3.13006 32.1425C4.66311 31.7237 6.18326 31.2351 7.70278 30.776C20.8209 26.8426 33.4873 21.2199 45.1962 14.1167Z" fill="white"/>
<path d="M45.1884 18.4375C45.1884 18.4375 45.1875 19.2357 45.1884 19.5165C44.8156 19.6796 44.2786 19.9827 43.9076 20.1772C43.1208 20.5945 42.3293 21.0028 41.5333 21.4024C38.8612 22.7456 36.1524 24.0147 33.4102 25.2084C22.8882 29.7593 12.1793 32.7955 0.994205 35.1615C0.994205 35.1615 0.991379 34.4275 0.994279 34.1757C1.51805 34.1261 2.77356 33.8102 3.33594 33.687C5.30757 33.2661 7.26982 32.8023 9.22124 32.2959C16.9255 30.4047 24.4723 27.9219 31.7945 24.8695C36.3113 22.9578 40.8699 20.7625 45.1884 18.4375Z" fill="white"/>
<path d="M34.8727 0.85498C35.2927 0.878969 35.7955 0.873619 36.2218 0.880201C28.981 7.73879 21.192 13.9944 12.9325 19.5844C9.30048 22.0192 5.59496 24.3425 1.82113 26.551C1.53759 26.7153 1.29627 26.8528 1.00179 26.9958L0.995412 25.9532C1.39327 25.671 2.01435 25.3388 2.45433 25.0765L5.29578 23.3673C7.76958 21.8523 10.2086 20.281 12.6107 18.6548C18.3077 14.8094 23.7716 10.6293 28.9733 6.13654C31.0145 4.38558 32.8851 2.64614 34.8727 0.85498Z" fill="white"/>
<mask id="path-8-outside-1_1397_10931" maskUnits="userSpaceOnUse" x="1.75291" y="44.4604" width="42" height="10" fill="black">
<rect fill="white" x="1.75291" y="44.4604" width="42" height="10"/>
<path d="M2.75291 51.9482V45.5692H4.02607L5.53904 50.0858C5.67856 50.5065 5.7803 50.8212 5.84425 51.0301C5.91691 50.798 6.03028 50.4572 6.18434 50.0075L7.71474 45.5692H8.85274V51.9482H8.03739V46.6092L6.17998 51.9482H5.41695L3.56826 46.5178V51.9482H2.75291Z"/>
<path d="M13.1387 50.2555L13.9105 50.3556C13.8262 50.8865 13.6096 51.3027 13.2608 51.6044C12.9149 51.9032 12.4891 52.0526 11.9833 52.0526C11.3496 52.0526 10.8395 51.8467 10.4529 51.4347C10.0692 51.0199 9.87737 50.4267 9.87737 49.6551C9.87737 49.1561 9.96021 48.7195 10.1259 48.3453C10.2916 47.9711 10.543 47.6912 10.8802 47.5055C11.2203 47.317 11.5894 47.2227 11.9877 47.2227C12.4905 47.2227 12.9018 47.3503 13.2216 47.6056C13.5413 47.858 13.7463 48.2177 13.8364 48.6847L13.0733 48.8022C13.0007 48.4918 12.8713 48.2583 12.6853 48.1017C12.5022 47.945 12.2798 47.8667 12.0182 47.8667C11.6229 47.8667 11.3017 48.0088 11.0546 48.2931C10.8075 48.5745 10.684 49.0212 10.684 49.6333C10.684 50.2541 10.8032 50.7052 11.0415 50.9866C11.2799 51.2679 11.5909 51.4086 11.9746 51.4086C12.2827 51.4086 12.54 51.3144 12.7463 51.1258C12.9527 50.9372 13.0835 50.6472 13.1387 50.2555Z"/>
<path d="M17.6733 49.4462V48.6978L20.3809 48.6934V51.0605C19.9653 51.3912 19.5365 51.6407 19.0947 51.8089C18.6529 51.9743 18.1994 52.057 17.7343 52.057C17.1065 52.057 16.5353 51.9235 16.0208 51.6567C15.5092 51.3869 15.1226 50.9982 14.861 50.4905C14.5994 49.9829 14.4686 49.4158 14.4686 48.7892C14.4686 48.1684 14.5979 47.5897 14.8566 47.053C15.1182 46.5135 15.4932 46.1131 15.9815 45.8521C16.4699 45.591 17.0323 45.4604 17.6689 45.4604C18.1311 45.4604 18.5482 45.5359 18.9203 45.6867C19.2952 45.8347 19.5888 46.0421 19.801 46.3089C20.0132 46.5758 20.1745 46.9239 20.285 47.3533L19.522 47.5621C19.426 47.2372 19.3069 46.9819 19.1644 46.7963C19.022 46.6106 18.8185 46.4627 18.554 46.3525C18.2895 46.2393 17.9959 46.1828 17.6733 46.1828C17.2867 46.1828 16.9524 46.2422 16.6704 46.3612C16.3885 46.4772 16.1603 46.6309 15.9859 46.8224C15.8144 47.0139 15.6807 47.2242 15.5848 47.4533C15.422 47.8478 15.3406 48.2757 15.3406 48.737C15.3406 49.3055 15.438 49.7813 15.6327 50.1642C15.8304 50.5471 16.1167 50.8314 16.4917 51.017C16.8667 51.2027 17.2649 51.2955 17.6864 51.2955C18.0526 51.2955 18.4101 51.2259 18.7589 51.0866C19.1078 50.9445 19.3723 50.7937 19.5525 50.6341V49.4462H17.6733Z"/>
<path d="M24.7018 50.4601L25.5128 50.5601C25.3849 51.033 25.148 51.3999 24.8021 51.661C24.4562 51.9221 24.0144 52.0526 23.4766 52.0526C22.7993 52.0526 22.2616 51.8452 21.8634 51.4304C21.468 51.0127 21.2704 50.4281 21.2704 49.6768C21.2704 48.8994 21.4709 48.296 21.8721 47.8667C22.2732 47.4374 22.7935 47.2227 23.433 47.2227C24.0521 47.2227 24.5579 47.433 24.9503 47.8536C25.3427 48.2743 25.5389 48.866 25.5389 49.629C25.5389 49.6754 25.5375 49.745 25.5346 49.8378H22.0814C22.1104 50.3455 22.2543 50.7342 22.513 51.004C22.7717 51.2737 23.0944 51.4086 23.481 51.4086C23.7687 51.4086 24.0144 51.3332 24.2178 51.1824C24.4213 51.0315 24.5826 50.7908 24.7018 50.4601ZM22.125 49.1938H24.7105C24.6756 48.8051 24.5768 48.5136 24.414 48.3192C24.1641 48.0175 23.84 47.8667 23.4417 47.8667C23.0813 47.8667 22.7775 47.9871 22.5305 48.2279C22.2863 48.4686 22.1511 48.7906 22.125 49.1938Z"/>
<path d="M26.2104 49.6377C26.2104 48.7819 26.4488 48.1481 26.9255 47.7362C27.3237 47.3939 27.8091 47.2227 28.3818 47.2227C29.0183 47.2227 29.5386 47.4316 29.9427 47.8493C30.3467 48.2641 30.5487 48.8385 30.5487 49.5724C30.5487 50.1671 30.4586 50.6356 30.2784 50.9779C30.1011 51.3173 29.8409 51.5812 29.4979 51.7698C29.1579 51.9583 28.7858 52.0526 28.3818 52.0526C27.7335 52.0526 27.2089 51.8452 26.8077 51.4304C26.4095 51.0156 26.2104 50.418 26.2104 49.6377ZM27.017 49.6377C27.017 50.2294 27.1464 50.6733 27.4051 50.9692C27.6638 51.2621 27.9893 51.4086 28.3818 51.4086C28.7713 51.4086 29.0954 51.2607 29.3541 50.9648C29.6128 50.6689 29.7421 50.2178 29.7421 49.6116C29.7421 49.0401 29.6113 48.6079 29.3497 48.3149C29.091 48.019 28.7684 47.8711 28.3818 47.8711C27.9893 47.8711 27.6638 48.0175 27.4051 48.3105C27.1464 48.6035 27.017 49.0459 27.017 49.6377Z"/>
<path d="M31.4644 51.9482V47.3271H32.1707V48.0277C32.3509 47.6999 32.5166 47.4838 32.6678 47.3794C32.8218 47.2749 32.9904 47.2227 33.1735 47.2227C33.438 47.2227 33.7069 47.3068 33.9802 47.4751L33.7098 48.2017C33.518 48.0886 33.3261 48.032 33.1343 48.032C32.9628 48.032 32.8087 48.0843 32.6721 48.1887C32.5355 48.2902 32.4381 48.4324 32.38 48.6151C32.2928 48.8936 32.2492 49.1982 32.2492 49.5289V51.9482H31.4644Z"/>
<path d="M34.3028 52.3311L35.0658 52.4442C35.0978 52.6792 35.1865 52.8503 35.3318 52.9577C35.5266 53.1027 35.7925 53.1752 36.1297 53.1752C36.493 53.1752 36.7735 53.1027 36.9712 52.9577C37.1689 52.8126 37.3026 52.6096 37.3723 52.3485C37.413 52.189 37.4319 51.8539 37.429 51.3434C37.086 51.7466 36.6587 51.9482 36.1471 51.9482C35.5106 51.9482 35.0179 51.719 34.6691 51.2607C34.3202 50.8024 34.1458 50.2526 34.1458 49.6116C34.1458 49.1706 34.2258 48.7645 34.3857 48.3932C34.5455 48.019 34.7766 47.7304 35.0789 47.5273C35.3841 47.3242 35.7416 47.2227 36.1515 47.2227C36.698 47.2227 37.1485 47.4432 37.5031 47.8841V47.3271H38.2269V51.3216C38.2269 52.041 38.1528 52.5501 38.0046 52.8489C37.8592 53.1506 37.6267 53.3885 37.3069 53.5625C36.9901 53.7366 36.5991 53.8236 36.1341 53.8236C35.5818 53.8236 35.1356 53.6988 34.7955 53.4494C34.4554 53.2028 34.2912 52.83 34.3028 52.3311ZM34.9525 49.555C34.9525 50.1613 35.0731 50.6036 35.3144 50.8821C35.5556 51.1606 35.8579 51.2998 36.2213 51.2998C36.5817 51.2998 36.884 51.1621 37.1282 50.8865C37.3723 50.608 37.4944 50.1729 37.4944 49.5811C37.4944 49.0154 37.368 48.589 37.1151 48.3018C36.8651 48.0146 36.5628 47.8711 36.2082 47.8711C35.8594 47.8711 35.5629 48.0132 35.3187 48.2975C35.0746 48.5789 34.9525 48.998 34.9525 49.555Z"/>
<path d="M42.5871 50.4601L43.398 50.5601C43.2701 51.033 43.0332 51.3999 42.6873 51.661C42.3414 51.9221 41.8996 52.0526 41.3619 52.0526C40.6846 52.0526 40.1468 51.8452 39.7486 51.4304C39.3533 51.0127 39.1556 50.4281 39.1556 49.6768C39.1556 48.8994 39.3562 48.296 39.7573 47.8667C40.1585 47.4374 40.6788 47.2227 41.3183 47.2227C41.9374 47.2227 42.4432 47.433 42.8356 47.8536C43.228 48.2743 43.4242 48.866 43.4242 49.629C43.4242 49.6754 43.4227 49.745 43.4198 49.8378H39.9666C39.9957 50.3455 40.1396 50.7342 40.3983 51.004C40.657 51.2737 40.9796 51.4086 41.3662 51.4086C41.654 51.4086 41.8996 51.3332 42.1031 51.1824C42.3066 51.0315 42.4679 50.7908 42.5871 50.4601ZM40.0102 49.1938H42.5958C42.5609 48.8051 42.4621 48.5136 42.2993 48.3192C42.0493 48.0175 41.7252 47.8667 41.327 47.8667C40.9665 47.8667 40.6628 47.9871 40.4157 48.2279C40.1715 48.4686 40.0364 48.7906 40.0102 49.1938Z"/>
</mask>
<path d="M2.75291 51.9482V45.5692H4.02607L5.53904 50.0858C5.67856 50.5065 5.7803 50.8212 5.84425 51.0301C5.91691 50.798 6.03028 50.4572 6.18434 50.0075L7.71474 45.5692H8.85274V51.9482H8.03739V46.6092L6.17998 51.9482H5.41695L3.56826 46.5178V51.9482H2.75291Z" fill="white"/>
<path d="M13.1387 50.2555L13.9105 50.3556C13.8262 50.8865 13.6096 51.3027 13.2608 51.6044C12.9149 51.9032 12.4891 52.0526 11.9833 52.0526C11.3496 52.0526 10.8395 51.8467 10.4529 51.4347C10.0692 51.0199 9.87737 50.4267 9.87737 49.6551C9.87737 49.1561 9.96021 48.7195 10.1259 48.3453C10.2916 47.9711 10.543 47.6912 10.8802 47.5055C11.2203 47.317 11.5894 47.2227 11.9877 47.2227C12.4905 47.2227 12.9018 47.3503 13.2216 47.6056C13.5413 47.858 13.7463 48.2177 13.8364 48.6847L13.0733 48.8022C13.0007 48.4918 12.8713 48.2583 12.6853 48.1017C12.5022 47.945 12.2798 47.8667 12.0182 47.8667C11.6229 47.8667 11.3017 48.0088 11.0546 48.2931C10.8075 48.5745 10.684 49.0212 10.684 49.6333C10.684 50.2541 10.8032 50.7052 11.0415 50.9866C11.2799 51.2679 11.5909 51.4086 11.9746 51.4086C12.2827 51.4086 12.54 51.3144 12.7463 51.1258C12.9527 50.9372 13.0835 50.6472 13.1387 50.2555Z" fill="white"/>
<path d="M17.6733 49.4462V48.6978L20.3809 48.6934V51.0605C19.9653 51.3912 19.5365 51.6407 19.0947 51.8089C18.6529 51.9743 18.1994 52.057 17.7343 52.057C17.1065 52.057 16.5353 51.9235 16.0208 51.6567C15.5092 51.3869 15.1226 50.9982 14.861 50.4905C14.5994 49.9829 14.4686 49.4158 14.4686 48.7892C14.4686 48.1684 14.5979 47.5897 14.8566 47.053C15.1182 46.5135 15.4932 46.1131 15.9815 45.8521C16.4699 45.591 17.0323 45.4604 17.6689 45.4604C18.1311 45.4604 18.5482 45.5359 18.9203 45.6867C19.2952 45.8347 19.5888 46.0421 19.801 46.3089C20.0132 46.5758 20.1745 46.9239 20.285 47.3533L19.522 47.5621C19.426 47.2372 19.3069 46.9819 19.1644 46.7963C19.022 46.6106 18.8185 46.4627 18.554 46.3525C18.2895 46.2393 17.9959 46.1828 17.6733 46.1828C17.2867 46.1828 16.9524 46.2422 16.6704 46.3612C16.3885 46.4772 16.1603 46.6309 15.9859 46.8224C15.8144 47.0139 15.6807 47.2242 15.5848 47.4533C15.422 47.8478 15.3406 48.2757 15.3406 48.737C15.3406 49.3055 15.438 49.7813 15.6327 50.1642C15.8304 50.5471 16.1167 50.8314 16.4917 51.017C16.8667 51.2027 17.2649 51.2955 17.6864 51.2955C18.0526 51.2955 18.4101 51.2259 18.7589 51.0866C19.1078 50.9445 19.3723 50.7937 19.5525 50.6341V49.4462H17.6733Z" fill="white"/>
<path d="M24.7018 50.4601L25.5128 50.5601C25.3849 51.033 25.148 51.3999 24.8021 51.661C24.4562 51.9221 24.0144 52.0526 23.4766 52.0526C22.7993 52.0526 22.2616 51.8452 21.8634 51.4304C21.468 51.0127 21.2704 50.4281 21.2704 49.6768C21.2704 48.8994 21.4709 48.296 21.8721 47.8667C22.2732 47.4374 22.7935 47.2227 23.433 47.2227C24.0521 47.2227 24.5579 47.433 24.9503 47.8536C25.3427 48.2743 25.5389 48.866 25.5389 49.629C25.5389 49.6754 25.5375 49.745 25.5346 49.8378H22.0814C22.1104 50.3455 22.2543 50.7342 22.513 51.004C22.7717 51.2737 23.0944 51.4086 23.481 51.4086C23.7687 51.4086 24.0144 51.3332 24.2178 51.1824C24.4213 51.0315 24.5826 50.7908 24.7018 50.4601ZM22.125 49.1938H24.7105C24.6756 48.8051 24.5768 48.5136 24.414 48.3192C24.1641 48.0175 23.84 47.8667 23.4417 47.8667C23.0813 47.8667 22.7775 47.9871 22.5305 48.2279C22.2863 48.4686 22.1511 48.7906 22.125 49.1938Z" fill="white"/>
<path d="M26.2104 49.6377C26.2104 48.7819 26.4488 48.1481 26.9255 47.7362C27.3237 47.3939 27.8091 47.2227 28.3818 47.2227C29.0183 47.2227 29.5386 47.4316 29.9427 47.8493C30.3467 48.2641 30.5487 48.8385 30.5487 49.5724C30.5487 50.1671 30.4586 50.6356 30.2784 50.9779C30.1011 51.3173 29.8409 51.5812 29.4979 51.7698C29.1579 51.9583 28.7858 52.0526 28.3818 52.0526C27.7335 52.0526 27.2089 51.8452 26.8077 51.4304C26.4095 51.0156 26.2104 50.418 26.2104 49.6377ZM27.017 49.6377C27.017 50.2294 27.1464 50.6733 27.4051 50.9692C27.6638 51.2621 27.9893 51.4086 28.3818 51.4086C28.7713 51.4086 29.0954 51.2607 29.3541 50.9648C29.6128 50.6689 29.7421 50.2178 29.7421 49.6116C29.7421 49.0401 29.6113 48.6079 29.3497 48.3149C29.091 48.019 28.7684 47.8711 28.3818 47.8711C27.9893 47.8711 27.6638 48.0175 27.4051 48.3105C27.1464 48.6035 27.017 49.0459 27.017 49.6377Z" fill="white"/>
<path d="M31.4644 51.9482V47.3271H32.1707V48.0277C32.3509 47.6999 32.5166 47.4838 32.6678 47.3794C32.8218 47.2749 32.9904 47.2227 33.1735 47.2227C33.438 47.2227 33.7069 47.3068 33.9802 47.4751L33.7098 48.2017C33.518 48.0886 33.3261 48.032 33.1343 48.032C32.9628 48.032 32.8087 48.0843 32.6721 48.1887C32.5355 48.2902 32.4381 48.4324 32.38 48.6151C32.2928 48.8936 32.2492 49.1982 32.2492 49.5289V51.9482H31.4644Z" fill="white"/>
<path d="M34.3028 52.3311L35.0658 52.4442C35.0978 52.6792 35.1865 52.8503 35.3318 52.9577C35.5266 53.1027 35.7925 53.1752 36.1297 53.1752C36.493 53.1752 36.7735 53.1027 36.9712 52.9577C37.1689 52.8126 37.3026 52.6096 37.3723 52.3485C37.413 52.189 37.4319 51.8539 37.429 51.3434C37.086 51.7466 36.6587 51.9482 36.1471 51.9482C35.5106 51.9482 35.0179 51.719 34.6691 51.2607C34.3202 50.8024 34.1458 50.2526 34.1458 49.6116C34.1458 49.1706 34.2258 48.7645 34.3857 48.3932C34.5455 48.019 34.7766 47.7304 35.0789 47.5273C35.3841 47.3242 35.7416 47.2227 36.1515 47.2227C36.698 47.2227 37.1485 47.4432 37.5031 47.8841V47.3271H38.2269V51.3216C38.2269 52.041 38.1528 52.5501 38.0046 52.8489C37.8592 53.1506 37.6267 53.3885 37.3069 53.5625C36.9901 53.7366 36.5991 53.8236 36.1341 53.8236C35.5818 53.8236 35.1356 53.6988 34.7955 53.4494C34.4554 53.2028 34.2912 52.83 34.3028 52.3311ZM34.9525 49.555C34.9525 50.1613 35.0731 50.6036 35.3144 50.8821C35.5556 51.1606 35.8579 51.2998 36.2213 51.2998C36.5817 51.2998 36.884 51.1621 37.1282 50.8865C37.3723 50.608 37.4944 50.1729 37.4944 49.5811C37.4944 49.0154 37.368 48.589 37.1151 48.3018C36.8651 48.0146 36.5628 47.8711 36.2082 47.8711C35.8594 47.8711 35.5629 48.0132 35.3187 48.2975C35.0746 48.5789 34.9525 48.998 34.9525 49.555Z" fill="white"/>
<path d="M42.5871 50.4601L43.398 50.5601C43.2701 51.033 43.0332 51.3999 42.6873 51.661C42.3414 51.9221 41.8996 52.0526 41.3619 52.0526C40.6846 52.0526 40.1468 51.8452 39.7486 51.4304C39.3533 51.0127 39.1556 50.4281 39.1556 49.6768C39.1556 48.8994 39.3562 48.296 39.7573 47.8667C40.1585 47.4374 40.6788 47.2227 41.3183 47.2227C41.9374 47.2227 42.4432 47.433 42.8356 47.8536C43.228 48.2743 43.4242 48.866 43.4242 49.629C43.4242 49.6754 43.4227 49.745 43.4198 49.8378H39.9666C39.9957 50.3455 40.1396 50.7342 40.3983 51.004C40.657 51.2737 40.9796 51.4086 41.3662 51.4086C41.654 51.4086 41.8996 51.3332 42.1031 51.1824C42.3066 51.0315 42.4679 50.7908 42.5871 50.4601ZM40.0102 49.1938H42.5958C42.5609 48.8051 42.4621 48.5136 42.2993 48.3192C42.0493 48.0175 41.7252 47.8667 41.327 47.8667C40.9665 47.8667 40.6628 47.9871 40.4157 48.2279C40.1715 48.4686 40.0364 48.7906 40.0102 49.1938Z" fill="white"/>
<path d="M2.75291 51.9482V45.5692H4.02607L5.53904 50.0858C5.67856 50.5065 5.7803 50.8212 5.84425 51.0301C5.91691 50.798 6.03028 50.4572 6.18434 50.0075L7.71474 45.5692H8.85274V51.9482H8.03739V46.6092L6.17998 51.9482H5.41695L3.56826 46.5178V51.9482H2.75291Z" stroke="white" stroke-width="0.0810128" mask="url(#path-8-outside-1_1397_10931)"/>
<path d="M13.1387 50.2555L13.9105 50.3556C13.8262 50.8865 13.6096 51.3027 13.2608 51.6044C12.9149 51.9032 12.4891 52.0526 11.9833 52.0526C11.3496 52.0526 10.8395 51.8467 10.4529 51.4347C10.0692 51.0199 9.87737 50.4267 9.87737 49.6551C9.87737 49.1561 9.96021 48.7195 10.1259 48.3453C10.2916 47.9711 10.543 47.6912 10.8802 47.5055C11.2203 47.317 11.5894 47.2227 11.9877 47.2227C12.4905 47.2227 12.9018 47.3503 13.2216 47.6056C13.5413 47.858 13.7463 48.2177 13.8364 48.6847L13.0733 48.8022C13.0007 48.4918 12.8713 48.2583 12.6853 48.1017C12.5022 47.945 12.2798 47.8667 12.0182 47.8667C11.6229 47.8667 11.3017 48.0088 11.0546 48.2931C10.8075 48.5745 10.684 49.0212 10.684 49.6333C10.684 50.2541 10.8032 50.7052 11.0415 50.9866C11.2799 51.2679 11.5909 51.4086 11.9746 51.4086C12.2827 51.4086 12.54 51.3144 12.7463 51.1258C12.9527 50.9372 13.0835 50.6472 13.1387 50.2555Z" stroke="white" stroke-width="0.0810128" mask="url(#path-8-outside-1_1397_10931)"/>
<path d="M17.6733 49.4462V48.6978L20.3809 48.6934V51.0605C19.9653 51.3912 19.5365 51.6407 19.0947 51.8089C18.6529 51.9743 18.1994 52.057 17.7343 52.057C17.1065 52.057 16.5353 51.9235 16.0208 51.6567C15.5092 51.3869 15.1226 50.9982 14.861 50.4905C14.5994 49.9829 14.4686 49.4158 14.4686 48.7892C14.4686 48.1684 14.5979 47.5897 14.8566 47.053C15.1182 46.5135 15.4932 46.1131 15.9815 45.8521C16.4699 45.591 17.0323 45.4604 17.6689 45.4604C18.1311 45.4604 18.5482 45.5359 18.9203 45.6867C19.2952 45.8347 19.5888 46.0421 19.801 46.3089C20.0132 46.5758 20.1745 46.9239 20.285 47.3533L19.522 47.5621C19.426 47.2372 19.3069 46.9819 19.1644 46.7963C19.022 46.6106 18.8185 46.4627 18.554 46.3525C18.2895 46.2393 17.9959 46.1828 17.6733 46.1828C17.2867 46.1828 16.9524 46.2422 16.6704 46.3612C16.3885 46.4772 16.1603 46.6309 15.9859 46.8224C15.8144 47.0139 15.6807 47.2242 15.5848 47.4533C15.422 47.8478 15.3406 48.2757 15.3406 48.737C15.3406 49.3055 15.438 49.7813 15.6327 50.1642C15.8304 50.5471 16.1167 50.8314 16.4917 51.017C16.8667 51.2027 17.2649 51.2955 17.6864 51.2955C18.0526 51.2955 18.4101 51.2259 18.7589 51.0866C19.1078 50.9445 19.3723 50.7937 19.5525 50.6341V49.4462H17.6733Z" stroke="white" stroke-width="0.0810128" mask="url(#path-8-outside-1_1397_10931)"/>
<path d="M24.7018 50.4601L25.5128 50.5601C25.3849 51.033 25.148 51.3999 24.8021 51.661C24.4562 51.9221 24.0144 52.0526 23.4766 52.0526C22.7993 52.0526 22.2616 51.8452 21.8634 51.4304C21.468 51.0127 21.2704 50.4281 21.2704 49.6768C21.2704 48.8994 21.4709 48.296 21.8721 47.8667C22.2732 47.4374 22.7935 47.2227 23.433 47.2227C24.0521 47.2227 24.5579 47.433 24.9503 47.8536C25.3427 48.2743 25.5389 48.866 25.5389 49.629C25.5389 49.6754 25.5375 49.745 25.5346 49.8378H22.0814C22.1104 50.3455 22.2543 50.7342 22.513 51.004C22.7717 51.2737 23.0944 51.4086 23.481 51.4086C23.7687 51.4086 24.0144 51.3332 24.2178 51.1824C24.4213 51.0315 24.5826 50.7908 24.7018 50.4601ZM22.125 49.1938H24.7105C24.6756 48.8051 24.5768 48.5136 24.414 48.3192C24.1641 48.0175 23.84 47.8667 23.4417 47.8667C23.0813 47.8667 22.7775 47.9871 22.5305 48.2279C22.2863 48.4686 22.1511 48.7906 22.125 49.1938Z" stroke="white" stroke-width="0.0810128" mask="url(#path-8-outside-1_1397_10931)"/>
<path d="M26.2104 49.6377C26.2104 48.7819 26.4488 48.1481 26.9255 47.7362C27.3237 47.3939 27.8091 47.2227 28.3818 47.2227C29.0183 47.2227 29.5386 47.4316 29.9427 47.8493C30.3467 48.2641 30.5487 48.8385 30.5487 49.5724C30.5487 50.1671 30.4586 50.6356 30.2784 50.9779C30.1011 51.3173 29.8409 51.5812 29.4979 51.7698C29.1579 51.9583 28.7858 52.0526 28.3818 52.0526C27.7335 52.0526 27.2089 51.8452 26.8077 51.4304C26.4095 51.0156 26.2104 50.418 26.2104 49.6377ZM27.017 49.6377C27.017 50.2294 27.1464 50.6733 27.4051 50.9692C27.6638 51.2621 27.9893 51.4086 28.3818 51.4086C28.7713 51.4086 29.0954 51.2607 29.3541 50.9648C29.6128 50.6689 29.7421 50.2178 29.7421 49.6116C29.7421 49.0401 29.6113 48.6079 29.3497 48.3149C29.091 48.019 28.7684 47.8711 28.3818 47.8711C27.9893 47.8711 27.6638 48.0175 27.4051 48.3105C27.1464 48.6035 27.017 49.0459 27.017 49.6377Z" stroke="white" stroke-width="0.0810128" mask="url(#path-8-outside-1_1397_10931)"/>
<path d="M31.4644 51.9482V47.3271H32.1707V48.0277C32.3509 47.6999 32.5166 47.4838 32.6678 47.3794C32.8218 47.2749 32.9904 47.2227 33.1735 47.2227C33.438 47.2227 33.7069 47.3068 33.9802 47.4751L33.7098 48.2017C33.518 48.0886 33.3261 48.032 33.1343 48.032C32.9628 48.032 32.8087 48.0843 32.6721 48.1887C32.5355 48.2902 32.4381 48.4324 32.38 48.6151C32.2928 48.8936 32.2492 49.1982 32.2492 49.5289V51.9482H31.4644Z" stroke="white" stroke-width="0.0810128" mask="url(#path-8-outside-1_1397_10931)"/>
<path d="M34.3028 52.3311L35.0658 52.4442C35.0978 52.6792 35.1865 52.8503 35.3318 52.9577C35.5266 53.1027 35.7925 53.1752 36.1297 53.1752C36.493 53.1752 36.7735 53.1027 36.9712 52.9577C37.1689 52.8126 37.3026 52.6096 37.3723 52.3485C37.413 52.189 37.4319 51.8539 37.429 51.3434C37.086 51.7466 36.6587 51.9482 36.1471 51.9482C35.5106 51.9482 35.0179 51.719 34.6691 51.2607C34.3202 50.8024 34.1458 50.2526 34.1458 49.6116C34.1458 49.1706 34.2258 48.7645 34.3857 48.3932C34.5455 48.019 34.7766 47.7304 35.0789 47.5273C35.3841 47.3242 35.7416 47.2227 36.1515 47.2227C36.698 47.2227 37.1485 47.4432 37.5031 47.8841V47.3271H38.2269V51.3216C38.2269 52.041 38.1528 52.5501 38.0046 52.8489C37.8592 53.1506 37.6267 53.3885 37.3069 53.5625C36.9901 53.7366 36.5991 53.8236 36.1341 53.8236C35.5818 53.8236 35.1356 53.6988 34.7955 53.4494C34.4554 53.2028 34.2912 52.83 34.3028 52.3311ZM34.9525 49.555C34.9525 50.1613 35.0731 50.6036 35.3144 50.8821C35.5556 51.1606 35.8579 51.2998 36.2213 51.2998C36.5817 51.2998 36.884 51.1621 37.1282 50.8865C37.3723 50.608 37.4944 50.1729 37.4944 49.5811C37.4944 49.0154 37.368 48.589 37.1151 48.3018C36.8651 48.0146 36.5628 47.8711 36.2082 47.8711C35.8594 47.8711 35.5629 48.0132 35.3187 48.2975C35.0746 48.5789 34.9525 48.998 34.9525 49.555Z" stroke="white" stroke-width="0.0810128" mask="url(#path-8-outside-1_1397_10931)"/>
<path d="M42.5871 50.4601L43.398 50.5601C43.2701 51.033 43.0332 51.3999 42.6873 51.661C42.3414 51.9221 41.8996 52.0526 41.3619 52.0526C40.6846 52.0526 40.1468 51.8452 39.7486 51.4304C39.3533 51.0127 39.1556 50.4281 39.1556 49.6768C39.1556 48.8994 39.3562 48.296 39.7573 47.8667C40.1585 47.4374 40.6788 47.2227 41.3183 47.2227C41.9374 47.2227 42.4432 47.433 42.8356 47.8536C43.228 48.2743 43.4242 48.866 43.4242 49.629C43.4242 49.6754 43.4227 49.745 43.4198 49.8378H39.9666C39.9957 50.3455 40.1396 50.7342 40.3983 51.004C40.657 51.2737 40.9796 51.4086 41.3662 51.4086C41.654 51.4086 41.8996 51.3332 42.1031 51.1824C42.3066 51.0315 42.4679 50.7908 42.5871 50.4601ZM40.0102 49.1938H42.5958C42.5609 48.8051 42.4621 48.5136 42.2993 48.3192C42.0493 48.0175 41.7252 47.8667 41.327 47.8667C40.9665 47.8667 40.6628 47.9871 40.4157 48.2279C40.1715 48.4686 40.0364 48.7906 40.0102 49.1938Z" stroke="white" stroke-width="0.0810128" mask="url(#path-8-outside-1_1397_10931)"/>
<path d="M40.7483 62.8085C40.6956 62.8133 40.6418 62.8171 40.5869 62.8195C40.5319 62.822 40.4757 62.8227 40.4184 62.8227C40.5329 62.8227 40.6429 62.8182 40.7483 62.8085Z" fill="white"/>
<path d="M39.2222 62.5608C39.2189 62.559 39.2152 62.5579 39.2119 62.5561L39.0988 62.4865C39.1383 62.5129 39.1797 62.5375 39.2222 62.5608Z" fill="white"/>
<path d="M39.5307 61.9627C39.5596 61.9938 39.5923 62.021 39.628 62.045L39.6272 62.0458C39.6094 62.0338 39.5927 62.0208 39.5766 62.007L39.5307 61.9627Z" fill="white"/>
<path d="M42.4817 56.9928V60.5774L42.4809 56.9936L41.7681 56.9928H42.4817Z" fill="white"/>
<path d="M40.4912 57.5213C40.8292 57.5213 41.1171 57.6458 41.3559 57.8955C41.5952 58.1429 41.719 58.5144 41.719 59.0157C41.719 59.5413 41.5995 59.9198 41.3693 60.1589C41.1367 60.3979 40.849 60.5172 40.5046 60.5173C40.1571 60.5173 39.8697 60.3965 39.6399 60.155C39.4125 59.916 39.2942 59.5314 39.2942 58.992C39.2942 58.4984 39.4131 58.1337 39.6439 57.8915L39.7341 57.8045C39.9486 57.6157 40.2006 57.5213 40.4912 57.5213Z" fill="white"/>
<path d="M41.2072 60.3496C41.1924 60.3598 41.1764 60.3679 41.1613 60.3773C41.1806 60.3652 41.2002 60.3534 41.219 60.3401L41.2072 60.3496Z" fill="white"/>
<path d="M41.1905 57.6985L41.2048 57.7096C41.1911 57.6995 41.1768 57.6905 41.1629 57.6811C41.1719 57.6871 41.1816 57.6922 41.1905 57.6985Z" fill="white"/>
<path d="M41.7673 57.4912V57.4928C41.7265 57.4467 41.684 57.4038 41.6407 57.363C41.6837 57.4035 41.7268 57.4454 41.7673 57.4912Z" fill="white"/>
<path d="M39.378 57.1732C39.2664 57.2415 39.1646 57.3206 39.0727 57.4105C39.1032 57.3806 39.1348 57.351 39.1676 57.3235C39.2332 57.2684 39.3036 57.2187 39.378 57.1732Z" fill="white"/>
<path d="M40.4358 56.8994L40.6328 56.9081C40.694 56.914 40.7538 56.9236 40.8124 56.935C40.6923 56.9115 40.5671 56.8994 40.4358 56.8994Z" fill="white"/>
<path d="M6.37171 59.7665L6.36301 59.7792C6.37401 59.7614 6.38416 59.743 6.39466 59.7246C6.38675 59.7385 6.37991 59.7529 6.37171 59.7665Z" fill="white"/>
<path d="M10.3693 61.2309L10.2404 61.2333C10.2883 61.2333 10.3358 61.2319 10.3828 61.2293L10.3693 61.2309Z" fill="white"/>
<path d="M10.2404 57.5213C10.6107 57.5213 10.9182 57.6502 11.1652 57.9073C11.4131 58.16 11.5409 58.5365 11.541 59.0426C11.541 59.5809 11.4147 59.9743 11.17 60.2293C10.923 60.4864 10.6137 60.6146 10.2404 60.6146C9.86393 60.6146 9.55371 60.487 9.30684 60.2325C9.06226 59.9773 8.93582 59.5909 8.9358 59.0664C8.93584 58.5413 9.06196 58.1559 9.30684 57.9034C9.55366 57.6491 9.86409 57.5213 10.2404 57.5213Z" fill="white"/>
<path d="M11.7791 57.4611C11.8289 57.5076 11.8757 57.5566 11.9192 57.6075C11.9609 57.6563 11.9987 57.708 12.0347 57.761C11.9612 57.6529 11.8764 57.5521 11.7791 57.4611Z" fill="white"/>
<path d="M20.0576 61.2254L19.8282 61.2333C19.912 61.2333 19.9937 61.2291 20.0735 61.223C20.0682 61.2234 20.0629 61.225 20.0576 61.2254Z" fill="white"/>
<path d="M20.6755 60.4097L20.6146 60.4604C20.636 60.4438 20.656 60.4261 20.6747 60.4089C20.6858 60.3988 20.6955 60.3877 20.7056 60.3773C20.6955 60.3877 20.6865 60.3996 20.6755 60.4097Z" fill="white"/>
<path d="M21.4833 59.3203L21.5268 59.382C21.5133 59.3607 21.4986 59.3404 21.4833 59.3203Z" fill="white"/>
<path d="M19.1454 58.4453L19.3741 58.5102C19.4879 58.5401 19.6394 58.5781 19.8282 58.6249L20.2072 58.7206C20.0912 58.6904 19.9649 58.6581 19.8282 58.6249C19.45 58.5312 19.2228 58.4714 19.1454 58.4453Z" fill="white"/>
<path d="M18.526 57.1882C18.4507 57.237 18.3834 57.2927 18.3227 57.3536C18.351 57.3251 18.3805 57.2971 18.4121 57.2713L18.526 57.1882Z" fill="white"/>
<path d="M20.628 57.0395C20.6961 57.0629 20.7596 57.0886 20.8187 57.1162C20.8716 57.141 20.9202 57.1687 20.9659 57.1969C20.869 57.1373 20.7562 57.0847 20.6272 57.0403C20.5653 57.0187 20.5009 56.9999 20.4342 56.9833C20.501 56.9999 20.566 57.0179 20.628 57.0395Z" fill="white"/>
<path d="M19.0157 56.9857C18.9528 57.0024 18.8942 57.0212 18.8393 57.0403C18.8492 57.0368 18.8591 57.0318 18.8693 57.0284L19.0165 56.9849L19.0157 56.9857Z" fill="white"/>
<path d="M30.1249 61.121C30.1175 61.1185 30.1099 61.1172 30.1027 61.1146L30.0094 61.0735C30.0445 61.0918 30.0833 61.1068 30.1249 61.121Z" fill="white"/>
<path d="M29.8116 60.9335L29.9018 61.0086C29.8358 60.962 29.781 60.9094 29.738 60.8504C29.7595 60.8798 29.7844 60.9071 29.8116 60.9335Z" fill="white"/>
<path d="M29.6091 60.4224C29.6082 60.4138 29.6067 60.4051 29.6059 60.3963L29.594 60.2143C29.5975 60.2905 29.6026 60.3599 29.6091 60.4224Z" fill="white"/>
<path d="M31.136 56.9928L31.1352 56.9936H30.3575L31.136 56.9928Z" fill="white"/>
<path d="M16.7926 57.5015C16.8151 57.5383 16.8348 57.5772 16.8535 57.617C16.8339 57.5757 16.8128 57.5358 16.7894 57.4975L16.7926 57.5015Z" fill="white"/>
<path d="M16.1929 57.0355C16.2509 57.0576 16.3052 57.0818 16.3559 57.1075C16.4016 57.1307 16.4436 57.1565 16.4833 57.1827C16.3995 57.1276 16.3025 57.0784 16.1921 57.0363C16.1411 57.016 16.0888 56.9983 16.0355 56.9825C16.089 56.9982 16.1418 57.0152 16.1929 57.0355Z" fill="white"/>
<path d="M15.6383 56.9081C15.6964 56.9132 15.7533 56.9209 15.8092 56.9303C15.7506 56.9204 15.6907 56.9125 15.6296 56.9073L15.6383 56.9081Z" fill="white"/>
<path d="M37.522 57.9066L37.541 58.0229C37.5426 58.0359 37.5428 58.0499 37.5442 58.064C37.5379 58.0014 37.5313 57.9487 37.522 57.9066Z" fill="white"/>
<path d="M37.2815 57.3876C37.31 57.4238 37.3364 57.4618 37.3606 57.5015C37.3815 57.5356 37.3999 57.5716 37.4176 57.6083C37.3792 57.5289 37.3347 57.4552 37.2815 57.3876Z" fill="white"/>
<path fill-rule="evenodd" clip-rule="evenodd" d="M39.2855 54.5679C41.1879 54.567 43.4069 54.5122 45.2879 54.5854C45.2725 55.8006 45.3078 57.0159 45.2681 58.2325C45.2225 59.639 44.7418 60.712 43.7704 61.7206C41.8256 63.5658 39.6358 63.1979 37.1597 63.193L6.46269 63.1953C4.27123 63.1854 2.50808 62.4381 1.45004 60.4042C0.849748 59.2498 0.888608 58.1569 0.889909 56.905L0.897029 54.5743L39.2855 54.5679ZM40.4358 56.8591C40.0258 56.8591 39.6654 56.9512 39.3575 57.1376C39.0525 57.3241 38.8188 57.5897 38.6581 57.9319C38.4978 58.2707 38.4184 58.6416 38.4184 59.0426C38.4184 59.6266 38.5934 60.1291 38.9437 60.5482C39.2965 60.9702 39.794 61.1802 40.431 61.1803C40.9124 61.1802 41.3197 61.0161 41.6534 60.6929C41.6532 60.9882 41.6441 61.2085 41.6249 61.3551L41.5996 61.488C41.5333 61.713 41.4075 61.8873 41.2214 62.0118C41.036 62.1356 40.7682 62.2 40.4144 62.2001C40.1277 62.2001 39.8977 62.1507 39.7222 62.0553L39.6502 62.0118C39.5185 61.9233 39.436 61.7807 39.4057 61.5782L39.401 61.5482L39.3709 61.5442L38.6185 61.443L38.5742 61.4366L38.5727 61.4817C38.5609 61.9415 38.7282 62.2905 39.0766 62.5205L39.2103 62.6012C39.534 62.7766 39.9376 62.863 40.4184 62.863C40.8811 62.863 41.2731 62.7838 41.5924 62.6241C41.9138 62.4648 42.1496 62.2451 42.2973 61.9659C42.4483 61.6881 42.522 61.2228 42.522 60.5774V56.9524H41.7277V57.3931C41.3814 57.0382 40.9508 56.8592 40.4358 56.8591ZM4.85985 55.2776C4.29835 55.2776 3.78164 55.3943 3.31159 55.6289C2.90197 55.8323 2.57318 56.1206 2.32583 56.492L2.22456 56.6566C1.97137 57.106 1.84565 57.6332 1.84561 58.2349C1.84565 58.787 1.95716 59.3045 2.18026 59.7863C2.40693 60.2694 2.73617 60.6402 3.1676 60.8971L3.3369 60.9865C3.74495 61.181 4.24909 61.2776 4.84719 61.2776C5.51004 61.2775 6.07327 61.1126 6.5339 60.7816C6.99772 60.4474 7.31755 59.9639 7.49434 59.3346L7.50621 59.2942L7.46507 59.2847L6.63121 59.0933L6.59165 59.0838L6.58216 59.1233C6.46926 59.5976 6.25424 59.952 5.93975 60.1898C5.62418 60.4282 5.23767 60.5481 4.77836 60.5482C4.40113 60.5482 4.05106 60.4601 3.72773 60.2839C3.40659 60.1089 3.16909 59.8452 3.01491 59.4912C2.8629 59.133 2.7863 58.7131 2.78627 58.2309C2.7863 57.8585 2.85088 57.4972 2.98089 57.1479C3.10963 56.7997 3.33214 56.5225 3.64861 56.3164L3.77203 56.2444C4.06791 56.0869 4.42426 56.0063 4.84244 56.0062C5.25739 56.0063 5.59894 56.1004 5.86855 56.2847C6.13721 56.4685 6.34469 56.7635 6.4888 57.174L6.50067 57.208L6.53548 57.2001L7.35668 57.0244L7.40019 57.0157L7.38674 56.973C7.21514 56.4367 6.91069 56.0184 6.47298 55.7214C6.03525 55.4245 5.4964 55.2776 4.85985 55.2776ZM10.2404 56.8591C9.66838 56.8591 9.18042 57.015 8.77994 57.3282C8.29778 57.7076 8.06006 58.2901 8.06 59.0664C8.06003 59.7741 8.25858 60.3221 8.66127 60.704L8.81871 60.8377C9.19934 61.1288 9.67401 61.2736 10.2404 61.2736C10.6445 61.2736 11.0179 61.1879 11.3591 61.0157C11.7035 60.8433 11.9665 60.6005 12.1454 60.2887C12.3277 59.9731 12.4168 59.5447 12.4168 59.0078C12.4168 58.424 12.2622 57.9469 11.95 57.5814L11.8068 57.4319C11.4 57.049 10.8764 56.8591 10.2404 56.8591ZM19.6866 56.8591C19.5058 56.8591 19.3326 56.8754 19.1676 56.9081L19.0054 56.9461C18.8493 56.9875 18.7156 57.0367 18.6059 57.0941L18.5038 57.1542C18.3387 57.2614 18.2068 57.3976 18.1091 57.5616C18.0137 57.7241 17.9659 57.9023 17.9659 58.0941C17.9659 58.3049 18.0239 58.499 18.1399 58.6748L18.1407 58.6755C18.2602 58.8492 18.4326 58.985 18.6557 59.0838C18.88 59.179 19.2784 59.2915 19.8456 59.4216C20.0554 59.4696 20.2254 59.5136 20.3559 59.5529C20.4868 59.5924 20.5755 59.6265 20.6241 59.655C20.7651 59.7396 20.832 59.8528 20.8322 59.9952C20.8322 60.1567 20.7543 60.301 20.5901 60.4279C20.4285 60.5501 20.1755 60.6146 19.8242 60.6146C19.5206 60.6146 19.2796 60.5586 19.098 60.4501L19.0236 60.4002C18.8385 60.2592 18.7243 60.056 18.6826 59.7863L18.6763 59.7467L18.6367 59.7523L17.8717 59.8615L17.8298 59.8678L17.8377 59.9097C17.9253 60.3577 18.1277 60.6994 18.4469 60.9303L18.5742 61.011C18.8866 61.1871 19.3057 61.2736 19.8282 61.2736C20.1904 61.2736 20.517 61.2168 20.806 61.1028C21.0951 60.986 21.3188 60.8219 21.473 60.6091C21.6291 60.3948 21.7087 60.1651 21.7087 59.9216C21.7087 59.6752 21.6449 59.4653 21.5157 59.2958C21.4195 59.1698 21.2954 59.0668 21.1454 58.9873L20.9864 58.9153C20.7686 58.8282 20.3846 58.718 19.8377 58.5854C19.4591 58.4915 19.2337 58.4328 19.1581 58.4073C19.0274 58.3593 18.9364 58.2998 18.8796 58.2317L18.8416 58.1811C18.8098 58.129 18.795 58.0724 18.795 58.0118C18.7952 57.8858 18.861 57.7715 19.0054 57.67C19.1467 57.5711 19.3899 57.5173 19.7428 57.5173C20.0387 57.5174 20.2616 57.5763 20.4152 57.689C20.5719 57.802 20.6664 57.9597 20.6992 58.1629L20.7056 58.2017L20.7443 58.1969L21.5007 58.1028L21.5434 58.098L21.5355 58.0553C21.4921 57.817 21.4172 57.6186 21.3092 57.4619L21.261 57.3971C21.1257 57.2279 20.9172 57.0967 20.6407 57.0015C20.3662 56.906 20.048 56.8591 19.6866 56.8591ZM22.5299 56.9524V59.5624C22.53 59.8618 22.5457 60.0843 22.5782 60.227L22.6201 60.3789C22.6682 60.5253 22.7349 60.6551 22.8219 60.7665C22.9421 60.914 23.1229 61.0351 23.3591 61.1305L23.5426 61.193C23.7289 61.2467 23.925 61.2736 24.1304 61.2736C24.7133 61.2736 25.182 61.061 25.5379 60.6407V61.1803H26.3108V56.9524H25.4564V59.2143C25.4564 59.5659 25.4136 59.8306 25.3314 60.0102C25.2525 60.1856 25.1156 60.3262 24.9192 60.4319C24.7219 60.5353 24.5108 60.5876 24.2855 60.5877C24.0596 60.5877 23.8725 60.537 23.723 60.4382C23.6109 60.3623 23.5284 60.2661 23.4746 60.1486L23.4303 60.0244C23.4002 59.9022 23.3844 59.6596 23.3844 59.2926V56.9524H22.5299ZM29.5687 55.9303L29.5481 55.9422V56.9524H28.9809V57.5798H29.5481V59.9255C29.5481 60.1369 29.5559 60.3135 29.5719 60.454C29.5878 60.5937 29.6118 60.7019 29.6462 60.7744L29.7064 60.8741C29.775 60.968 29.8707 61.0463 29.9912 61.1091C30.1541 61.194 30.3793 61.2349 30.6629 61.2349C30.8378 61.2349 31.0353 61.2135 31.2546 61.1716L31.2942 61.1637L31.1755 60.5039L31.1684 60.4659L31.1304 60.4706C30.9909 60.4887 30.8792 60.4975 30.7958 60.4975C30.6844 60.4975 30.6027 60.4809 30.5481 60.4517C30.4955 60.4218 30.458 60.3823 30.4334 60.3338C30.4234 60.3114 30.4136 60.2705 30.4073 60.2072C30.4011 60.1447 30.3978 60.0636 30.3978 59.9643V57.5798H31.1763V56.9524H30.3978V55.4762L29.5687 55.9303ZM15.4366 56.8591C14.8369 56.8591 14.3642 57.0604 14.0244 57.4651V56.9524H13.2467V61.1803H14.1019V58.8749C14.102 58.3477 14.2201 58.0032 14.4429 57.8251L14.5323 57.7602C14.7455 57.6195 14.9921 57.549 15.2728 57.549C15.4732 57.549 15.6456 57.5906 15.7902 57.6724L15.791 57.6732C15.9386 57.7526 16.0395 57.8594 16.0956 57.9928L16.1328 58.1067C16.1652 58.2341 16.1826 58.4038 16.1826 58.617V61.1803H17.0371V58.5901C17.0371 58.3463 17.029 58.1546 17.0125 58.0173L16.9928 57.8979C16.9457 57.6923 16.863 57.5132 16.7443 57.3623C16.6239 57.2092 16.4436 57.0885 16.2072 56.9983C15.9728 56.9052 15.716 56.8591 15.4366 56.8591ZM27.4295 55.3749V61.1803H28.2839V55.3749H27.4295ZM31.8598 56.9524V61.1803H32.7143V56.9524H31.8598ZM36.0046 56.8591C35.4047 56.8591 34.9322 57.0608 34.5924 57.4659V56.9524H33.8155V61.1803H34.67V58.8749C34.67 58.3476 34.7881 58.0024 35.011 57.8243C35.2438 57.6406 35.5208 57.549 35.8416 57.549C36.042 57.549 36.2144 57.5906 36.3591 57.6724L36.3598 57.6732C36.5072 57.7526 36.6076 57.8595 36.6636 57.9928L36.7016 58.1067C36.734 58.2341 36.7506 58.4039 36.7507 58.617V61.1803H37.6051V58.5901C37.6051 58.3463 37.5971 58.1546 37.5806 58.0173L37.5616 57.8979C37.5146 57.6924 37.4318 57.5131 37.3132 57.3623C37.1928 57.2091 37.0118 57.0886 36.7752 56.9983C36.5408 56.9052 36.2841 56.8591 36.0046 56.8591ZM31.8598 55.3749V56.2642H32.7143V55.3749H31.8598Z" fill="white"/>
</svg>
